<svg width="22" height="21" viewBox="0 0 22 21" fill="none" xmlns="http://www.w3.org/2000/svg">
<path d="M8.91264 16.7411H1.03674" stroke="#130F26" stroke-width="1.5" stroke-linecap="round" stroke-linejoin="round"/>
<path d="M12.4257 4.62546H20.3016" stroke="#130F26" stroke-width="1.5" stroke-linecap="round" stroke-linejoin="round"/>
<path fill-rule="evenodd" clip-rule="evenodd" d="M6.90786 4.55782C6.90786 2.93825 5.58516 1.625 3.95393 1.625C2.3227 1.625 1 2.93825 1 4.55782C1 6.17739 2.3227 7.49063 3.95393 7.49063C5.58516 7.49063 6.90786 6.17739 6.90786 4.55782Z" stroke="#130F26" stroke-width="1.5" stroke-linecap="round" stroke-linejoin="round"/>
<path fill-rule="evenodd" clip-rule="evenodd" d="M21 16.6922C21 15.0726 19.6783 13.7594 18.0471 13.7594C16.4149 13.7594 15.0922 15.0726 15.0922 16.6922C15.0922 18.3118 16.4149 19.625 18.0471 19.625C19.6783 19.625 21 18.3118 21 16.6922Z" stroke="#130F26" stroke-width="1.5" stroke-linecap="round" stroke-linejoin="round"/>
</svg>
