<svg width="26" height="28" viewBox="0 0 26 28" fill="none" xmlns="http://www.w3.org/2000/svg">
<path d="M9.44652 24.9643V21.1308C9.4465 20.1558 10.2414 19.3635 11.2263 19.357H14.8339C15.8234 19.357 16.6256 20.1512 16.6256 21.1308V21.1308V24.9762C16.6254 25.804 17.2928 26.4806 18.1288 26.5H20.5339C22.9314 26.5 24.875 24.5758 24.875 22.2023V22.2023V11.2973C24.8622 10.3635 24.4193 9.48669 23.6725 8.91629L15.4472 2.35663C14.0062 1.21446 11.9578 1.21446 10.5168 2.35663L2.32753 8.9282C1.57782 9.49628 1.13423 10.3746 1.125 11.3092V22.2023C1.125 24.5758 3.06859 26.5 5.46614 26.5H7.8712C8.72794 26.5 9.42247 25.8124 9.42247 24.9643V24.9643" stroke="black" stroke-width="1.5" stroke-linecap="round" stroke-linejoin="round"/>
</svg>
